<?xml version="1.0" encoding="UTF-8"?>
<!DOCTYPE svg PUBLIC "-//W3C//DTD SVG 1.1//EN" "http://www.w3.org/Graphics/SVG/1.1/DTD/svg11.dtd">
<svg xmlns="http://www.w3.org/2000/svg" version="1.1" width="318px" height="484px" style="shape-rendering:geometricPrecision; text-rendering:geometricPrecision; image-rendering:optimizeQuality; fill-rule:evenodd; clip-rule:evenodd" xmlns:xlink="http://www.w3.org/1999/xlink">
<g><path style="opacity:0.989" fill="#0a2e2a" d="M -0.5,-0.5 C 44.5,-0.5 89.5,-0.5 134.5,-0.5C 134.5,44.5 134.5,89.5 134.5,134.5C 89.5,134.5 44.5,134.5 -0.5,134.5C -0.5,89.5 -0.5,44.5 -0.5,-0.5 Z"/></g>
<g><path style="opacity:0.987" fill="#0a2e2a" d="M 181.5,173.5 C 226.5,173.5 271.5,173.5 316.5,173.5C 316.5,218.5 316.5,263.5 316.5,308.5C 271.5,308.5 226.5,308.5 181.5,308.5C 181.5,263.5 181.5,218.5 181.5,173.5 Z"/></g>
<g><path style="opacity:0.989" fill="#0a2e2a" d="M -0.5,174.5 C 44.5,174.5 89.5,174.5 134.5,174.5C 134.5,219.5 134.5,264.5 134.5,309.5C 89.5,309.5 44.5,309.5 -0.5,309.5C -0.5,264.5 -0.5,219.5 -0.5,174.5 Z"/></g>
<g><path style="opacity:0.99" fill="#0a2e2a" d="M 316.5,483.5 C 271.5,483.5 226.5,483.5 181.5,483.5C 181.5,438.833 181.5,394.167 181.5,349.5C 226.5,349.5 271.5,349.5 316.5,349.5C 316.5,394.167 316.5,438.833 316.5,483.5 Z"/></g>
</svg>
