<?xml version="1.0" encoding="UTF-8"?>
<!DOCTYPE svg PUBLIC "-//W3C//DTD SVG 1.1//EN" "http://www.w3.org/Graphics/SVG/1.1/DTD/svg11.dtd">
<svg xmlns="http://www.w3.org/2000/svg" version="1.1" width="2582px" height="4000px" style="shape-rendering:geometricPrecision; text-rendering:geometricPrecision; image-rendering:optimizeQuality; fill-rule:evenodd; clip-rule:evenodd" xmlns:xlink="http://www.w3.org/1999/xlink">
<g><path style="opacity:1" fill="#0eecd4" d="M 23.5,62.5 C 381.5,62.5 739.5,62.5 1097.5,62.5C 1097.5,420.5 1097.5,778.5 1097.5,1136.5C 739.5,1136.5 381.5,1136.5 23.5,1136.5C 23.5,778.5 23.5,420.5 23.5,62.5 Z"/></g>
<g><path style="opacity:1" fill="#0eecd4" d="M 1485.5,1459.5 C 1843.5,1459.5 2201.5,1459.5 2559.5,1459.5C 2559.5,1817.5 2559.5,2175.5 2559.5,2533.5C 2201.5,2533.5 1843.5,2533.5 1485.5,2533.5C 1485.5,2175.5 1485.5,1817.5 1485.5,1459.5 Z"/></g>
<g><path style="opacity:1" fill="#0eecd4" d="M 23.5,1467.5 C 381.5,1467.5 739.5,1467.5 1097.5,1467.5C 1097.5,1825.5 1097.5,2183.5 1097.5,2541.5C 739.5,2541.5 381.5,2541.5 23.5,2541.5C 23.5,2183.5 23.5,1825.5 23.5,1467.5 Z"/></g>
<g><path style="opacity:1" fill="#0eecd4" d="M 1485.5,2864.5 C 1843.5,2864.5 2201.5,2864.5 2559.5,2864.5C 2559.5,3222.5 2559.5,3580.5 2559.5,3938.5C 2201.5,3938.5 1843.5,3938.5 1485.5,3938.5C 1485.5,3580.5 1485.5,3222.5 1485.5,2864.5 Z"/></g>
</svg>
